<svg xmlns="http://www.w3.org/2000/svg" viewBox="0 0 527.42 88.26"><defs><style>.cls-1{fill:#fff;}</style></defs><title>Asset 2</title><g id="Layer_2" data-name="Layer 2"><g id="Layer_1-2" data-name="Layer 1"><path class="cls-1" d="M70.22,6.5,60.79,25.36s-9.75-5.2-18.53-5.2c-6.34,0-8.94,1.13-8.94,5,0,4.39,5.85,5.69,13,8,11.06,3.41,25.36,9.59,25.36,26.66,0,24.54-22.43,28.44-39.5,28.44C12,88.26,0,77.05,0,77.05L11.7,57.38S23.08,67,32.35,67c4.06,0,8.94-.49,8.94-6,0-6-9.11-6.5-18.53-11.37C14.3,45.19,5.85,39.34,5.85,26.82,5.85,9.75,20.32,0,42.26,0A63.7,63.7,0,0,1,70.22,6.5Z"/><path class="cls-1" d="M109.87,48.11c0,12.84,10.73,17.23,18,17.23,9.27,0,13.33-1.78,20.32-9.26L169,66.48c-9.43,15.77-24.71,21.78-43.24,21.78C100.61,88.26,80,68.43,80,44.21,80,19.83,100.61,0,125.8,0c25.36,0,44.7,15,44.7,44.21a30.44,30.44,0,0,1-.16,3.9Zm32.51-15.93c-1.3-8.77-7.31-13.49-15.77-13.49-9.91,0-15.44,5.85-15.93,13.49Z"/><path class="cls-1" d="M224.62,47.79,244.94,2.44h34.14l-44.7,83.38H214.87L170.17,2.44H204.3Z"/><path class="cls-1" d="M309,48.11C309,61,319.7,65.34,327,65.34c9.26,0,13.33-1.78,20.32-9.26l20.8,10.4c-9.43,15.77-24.71,21.78-43.24,21.78-25.19,0-45.83-19.83-45.83-44.05C279.07,19.83,299.71,0,324.9,0c25.36,0,44.71,15,44.71,44.21a28.66,28.66,0,0,1-.17,3.9Zm32.5-15.93c-1.3-8.77-7.31-13.49-15.76-13.49-9.92,0-15.44,5.85-15.93,13.49Z"/><path class="cls-1" d="M382.76,2.44h28.77v8.78h.33C418.36,4.71,426.65,0,435.75,0,451,0,472.32,7.64,472.32,30.88V85.82H443.55V38.69c0-8.29-5.68-16.26-14.95-16.26-8.61,0-17.07,8-17.07,16.26V85.82H382.76Z"/><path class="cls-1" d="M527.42,69.73A18.61,18.61,0,1,1,508.73,51,18.56,18.56,0,0,1,527.42,69.73Z"/></g></g></svg>